<svg xmlns="http://www.w3.org/2000/svg" xmlns:xlink="http://www.w3.org/1999/xlink" width="337" zoomAndPan="magnify" viewBox="0 0 252.75 42.75" height="57" preserveAspectRatio="xMidYMid meet" version="1.0"><defs><clipPath id="7de60d56cf"><path d="M 1 2 L 250 2 L 250 38.921875 L 1 38.921875 Z M 1 2 " clip-rule="nonzero"/></clipPath></defs><g clip-path="url(#7de60d56cf)"><path fill="#fff" d="M 92.507812 24.242188 L 101.695312 24.242188 L 96.949219 10.324219 Z M 106.496094 38.320312 L 104.46875 32.367188 L 89.878906 32.367188 L 87.984375 38.320312 L 78.503906 38.320312 L 90.613281 2.703125 L 103.214844 2.703125 L 115.359375 38.320312 Z M 75.292969 2.703125 L 75.292969 38.320312 L 66.625 38.320312 L 66.625 16.285156 L 57.695312 30.9375 L 54.976562 30.9375 L 46.050781 16.285156 L 46.050781 38.320312 L 37.382812 38.320312 L 37.382812 2.703125 L 47.4375 2.703125 L 56.332031 17.253906 L 65.226562 2.703125 Z M 126.203125 38.320312 L 126.203125 2.703125 L 127.226562 2.703125 L 127.226562 38.320312 Z M 138.457031 22.652344 L 138.457031 16.714844 L 140.351562 16.714844 L 140.351562 22.53125 C 140.351562 23.148438 140.507812 23.613281 140.824219 23.9375 C 141.140625 24.253906 141.566406 24.421875 142.132812 24.421875 C 142.671875 24.421875 143.101562 24.253906 143.417969 23.925781 C 143.730469 23.601562 143.890625 23.136719 143.890625 22.53125 L 143.890625 16.714844 L 145.796875 16.714844 L 145.796875 22.652344 C 145.796875 23.824219 145.445312 24.714844 144.757812 25.324219 C 144.070312 25.933594 143.203125 26.238281 142.144531 26.238281 C 141.082031 26.238281 140.214844 25.933594 139.515625 25.324219 C 138.792969 24.726562 138.457031 23.835938 138.457031 22.652344 Z M 149.210938 26.078125 L 147.417969 26.078125 L 147.417969 19.171875 L 149.164062 19.171875 L 149.164062 20.128906 C 149.347656 19.78125 149.640625 19.507812 150.023438 19.296875 C 150.40625 19.082031 150.84375 18.980469 151.332031 18.980469 C 152.085938 18.980469 152.71875 19.226562 153.246094 19.722656 C 153.765625 20.21875 154.035156 20.929688 154.035156 21.851562 L 154.035156 26.070312 L 152.242188 26.070312 L 152.242188 22.328125 C 152.242188 21.785156 152.109375 21.367188 151.847656 21.0625 C 151.589844 20.761719 151.230469 20.613281 150.789062 20.613281 C 150.316406 20.613281 149.933594 20.769531 149.640625 21.097656 C 149.347656 21.425781 149.199219 21.84375 149.199219 22.359375 L 149.199219 26.078125 Z M 157.382812 19.171875 L 157.382812 26.078125 L 155.589844 26.078125 L 155.589844 19.171875 Z M 157.597656 17.300781 C 157.597656 17.617188 157.496094 17.875 157.28125 18.089844 C 157.066406 18.304688 156.808594 18.40625 156.492188 18.40625 C 156.175781 18.40625 155.917969 18.304688 155.703125 18.089844 C 155.488281 17.875 155.386719 17.617188 155.386719 17.300781 C 155.386719 16.984375 155.488281 16.726562 155.703125 16.523438 C 155.917969 16.308594 156.175781 16.207031 156.492188 16.207031 C 156.808594 16.207031 157.066406 16.308594 157.28125 16.523438 C 157.496094 16.726562 157.597656 16.984375 157.597656 17.300781 Z M 161.972656 23.644531 L 163.675781 19.171875 L 165.636719 19.171875 L 162.636719 26.070312 L 161.273438 26.070312 L 158.285156 19.171875 L 160.246094 19.171875 Z M 169.433594 20.476562 C 168.984375 20.476562 168.601562 20.601562 168.285156 20.863281 C 167.96875 21.121094 167.753906 21.46875 167.640625 21.921875 L 171.148438 21.921875 C 171.070312 21.46875 170.867188 21.121094 170.5625 20.863281 C 170.28125 20.613281 169.898438 20.476562 169.433594 20.476562 Z M 172.894531 22.472656 C 172.894531 22.6875 172.875 22.945312 172.828125 23.261719 L 167.640625 23.261719 C 167.890625 24.242188 168.566406 24.726562 169.660156 24.726562 C 170.460938 24.726562 171.203125 24.492188 171.890625 24.027344 L 172.601562 25.28125 C 171.722656 25.910156 170.71875 26.226562 169.582031 26.226562 C 168.375 26.226562 167.441406 25.875 166.796875 25.179688 C 166.15625 24.492188 165.839844 23.632812 165.839844 22.621094 C 165.839844 21.558594 166.175781 20.691406 166.84375 20.027344 C 167.507812 19.339844 168.375 19 169.433594 19 C 170.4375 19 171.273438 19.316406 171.914062 19.9375 C 172.570312 20.558594 172.894531 21.402344 172.894531 22.472656 Z M 175.917969 26.078125 L 174.125 26.078125 L 174.125 19.171875 L 175.839844 19.171875 L 175.839844 20.09375 C 176.253906 19.351562 176.886719 18.980469 177.742188 18.980469 C 178.023438 18.980469 178.296875 19.023438 178.578125 19.125 L 178.429688 20.839844 C 178.125 20.75 177.855469 20.703125 177.609375 20.703125 C 177.089844 20.703125 176.671875 20.882812 176.367188 21.234375 C 176.0625 21.582031 175.917969 22.101562 175.917969 22.800781 Z M 181.65625 26.261719 C 180.460938 26.261719 179.5 25.820312 178.804688 24.929688 L 179.75 23.804688 C 179.996094 24.097656 180.292969 24.332031 180.628906 24.5 C 180.96875 24.671875 181.316406 24.761719 181.667969 24.761719 C 181.9375 24.761719 182.164062 24.695312 182.34375 24.570312 C 182.523438 24.445312 182.613281 24.277344 182.613281 24.085938 C 182.613281 23.835938 182.445312 23.644531 182.117188 23.488281 C 182.015625 23.441406 181.746094 23.339844 181.292969 23.171875 C 180.898438 23.027344 180.605469 22.902344 180.402344 22.800781 C 179.613281 22.417969 179.207031 21.820312 179.207031 21.019531 C 179.207031 20.421875 179.445312 19.925781 179.917969 19.519531 C 180.382812 19.136719 181.011719 18.933594 181.789062 18.933594 C 182.769531 18.933594 183.570312 19.261719 184.214844 19.925781 L 183.324219 21.074219 C 182.839844 20.625 182.308594 20.386719 181.734375 20.386719 C 181.507812 20.386719 181.316406 20.445312 181.171875 20.558594 C 181.023438 20.671875 180.945312 20.804688 180.945312 20.972656 C 180.945312 21.257812 181.148438 21.46875 181.554688 21.605469 C 182.457031 21.945312 183.007812 22.167969 183.210938 22.28125 C 183.988281 22.6875 184.371094 23.273438 184.371094 24.027344 C 184.371094 24.683594 184.125 25.210938 183.617188 25.628906 C 183.15625 26.046875 182.488281 26.261719 181.65625 26.261719 Z M 187.449219 19.171875 L 187.449219 26.078125 L 185.65625 26.078125 L 185.65625 19.171875 Z M 187.664062 17.300781 C 187.664062 17.617188 187.5625 17.875 187.347656 18.089844 C 187.132812 18.304688 186.875 18.40625 186.558594 18.40625 C 186.242188 18.40625 185.984375 18.304688 185.769531 18.089844 C 185.554688 17.875 185.453125 17.617188 185.453125 17.300781 C 185.453125 16.984375 185.554688 16.726562 185.769531 16.523438 C 185.984375 16.308594 186.242188 16.207031 186.558594 16.207031 C 186.875 16.207031 187.132812 16.308594 187.347656 16.523438 C 187.5625 16.726562 187.664062 16.984375 187.664062 17.300781 Z M 194.292969 22.621094 C 194.292969 22.066406 194.113281 21.59375 193.761719 21.210938 C 193.402344 20.828125 192.949219 20.625 192.375 20.625 C 191.8125 20.625 191.351562 20.816406 190.976562 21.210938 C 190.617188 21.59375 190.449219 22.054688 190.449219 22.621094 C 190.449219 23.183594 190.628906 23.667969 190.976562 24.050781 C 191.339844 24.433594 191.800781 24.625 192.375 24.625 C 192.941406 24.625 193.402344 24.433594 193.761719 24.050781 C 194.113281 23.667969 194.292969 23.183594 194.292969 22.621094 Z M 194.203125 19.972656 L 194.203125 16.445312 L 195.996094 16.445312 L 195.996094 26.070312 L 194.246094 26.070312 L 194.246094 25.222656 C 193.695312 25.898438 192.972656 26.238281 192.105469 26.238281 C 191.113281 26.238281 190.300781 25.898438 189.660156 25.210938 C 189.003906 24.511719 188.679688 23.644531 188.679688 22.621094 C 188.679688 21.59375 189.003906 20.738281 189.660156 20.039062 C 190.3125 19.351562 191.136719 19 192.105469 19 C 192.929688 19 193.628906 19.316406 194.203125 19.972656 Z M 202.894531 22.621094 C 202.894531 22.078125 202.703125 21.605469 202.339844 21.210938 C 201.980469 20.828125 201.519531 20.625 200.953125 20.625 C 200.390625 20.625 199.929688 20.816406 199.558594 21.210938 C 199.195312 21.59375 199.027344 22.066406 199.027344 22.621094 C 199.027344 23.171875 199.207031 23.644531 199.566406 24.039062 C 199.929688 24.421875 200.390625 24.625 200.953125 24.625 C 201.507812 24.625 201.96875 24.433594 202.339844 24.039062 C 202.714844 23.644531 202.894531 23.171875 202.894531 22.621094 Z M 202.871094 19.992188 L 202.871094 19.171875 L 204.574219 19.171875 L 204.574219 26.078125 L 202.871094 26.078125 L 202.871094 25.28125 C 202.285156 25.921875 201.539062 26.238281 200.660156 26.238281 C 199.667969 26.238281 198.847656 25.886719 198.203125 25.199219 C 197.5625 24.511719 197.246094 23.632812 197.246094 22.585938 C 197.246094 21.550781 197.574219 20.691406 198.226562 20.015625 C 198.878906 19.328125 199.691406 18.992188 200.671875 18.992188 C 201.53125 19 202.261719 19.328125 202.871094 19.992188 Z M 211.425781 22.621094 C 211.425781 22.066406 211.246094 21.59375 210.898438 21.210938 C 210.546875 20.828125 210.085938 20.625 209.511719 20.625 C 208.9375 20.625 208.484375 20.816406 208.113281 21.210938 C 207.765625 21.59375 207.582031 22.054688 207.582031 22.621094 C 207.582031 23.183594 207.765625 23.667969 208.113281 24.050781 C 208.472656 24.433594 208.9375 24.625 209.511719 24.625 C 210.085938 24.625 210.535156 24.433594 210.898438 24.050781 C 211.246094 23.667969 211.425781 23.183594 211.425781 22.621094 Z M 211.335938 19.972656 L 211.335938 16.445312 L 213.128906 16.445312 L 213.128906 26.070312 L 211.382812 26.070312 L 211.382812 25.222656 C 210.828125 25.898438 210.109375 26.238281 209.242188 26.238281 C 208.25 26.238281 207.4375 25.898438 206.792969 25.210938 C 206.140625 24.511719 205.8125 23.644531 205.8125 22.621094 C 205.8125 21.59375 206.140625 20.738281 206.792969 20.039062 C 207.449219 19.351562 208.269531 19 209.242188 19 C 210.0625 19 210.761719 19.316406 211.335938 19.972656 Z M 140.40625 38.792969 L 138.558594 38.792969 L 138.558594 29.425781 L 139.796875 29.425781 L 143.472656 34.734375 L 147.113281 29.425781 L 148.375 29.425781 L 148.375 38.792969 L 146.503906 38.792969 L 146.503906 33.484375 L 143.777344 37.394531 L 143.132812 37.394531 L 140.40625 33.484375 Z M 155.410156 35.332031 C 155.410156 34.792969 155.21875 34.316406 154.859375 33.925781 C 154.496094 33.539062 154.035156 33.335938 153.472656 33.335938 C 152.910156 33.335938 152.445312 33.53125 152.074219 33.925781 C 151.714844 34.308594 151.542969 34.78125 151.542969 35.332031 C 151.542969 35.886719 151.726562 36.359375 152.085938 36.753906 C 152.445312 37.136719 152.910156 37.339844 153.472656 37.339844 C 154.023438 37.339844 154.488281 37.148438 154.859375 36.753906 C 155.21875 36.347656 155.410156 35.886719 155.410156 35.332031 Z M 155.386719 32.707031 L 155.386719 31.882812 L 157.089844 31.882812 L 157.089844 38.792969 L 155.386719 38.792969 L 155.386719 37.992188 C 154.800781 38.636719 154.058594 38.949219 153.179688 38.949219 C 152.1875 38.949219 151.363281 38.601562 150.722656 37.914062 C 150.078125 37.226562 149.761719 36.347656 149.761719 35.300781 C 149.761719 34.261719 150.089844 33.40625 150.742188 32.730469 C 151.398438 32.042969 152.210938 31.703125 153.191406 31.703125 C 154.035156 31.703125 154.78125 32.042969 155.386719 32.707031 Z M 160.484375 38.792969 L 158.691406 38.792969 L 158.691406 31.882812 L 160.40625 31.882812 L 160.40625 32.808594 C 160.824219 32.0625 161.453125 31.691406 162.308594 31.691406 C 162.59375 31.691406 162.863281 31.738281 163.144531 31.839844 L 162.996094 33.550781 C 162.695312 33.460938 162.421875 33.417969 162.175781 33.417969 C 161.65625 33.417969 161.238281 33.597656 160.933594 33.945312 C 160.628906 34.296875 160.484375 34.8125 160.484375 35.511719 Z M 165.816406 31.882812 L 165.816406 38.792969 L 164.023438 38.792969 L 164.023438 31.882812 Z M 165.691406 30.859375 L 164.101562 30.859375 L 164.890625 28.625 L 166.875 28.625 Z M 172.691406 35.332031 C 172.691406 34.792969 172.5 34.316406 172.140625 33.925781 C 171.78125 33.539062 171.316406 33.335938 170.753906 33.335938 C 170.191406 33.335938 169.726562 33.53125 169.355469 33.925781 C 168.996094 34.308594 168.828125 34.78125 168.828125 35.332031 C 168.828125 35.886719 169.007812 36.359375 169.367188 36.753906 C 169.726562 37.136719 170.191406 37.339844 170.753906 37.339844 C 171.304688 37.339844 171.769531 37.148438 172.140625 36.753906 C 172.511719 36.347656 172.691406 35.886719 172.691406 35.332031 Z M 172.671875 32.707031 L 172.671875 31.882812 L 174.371094 31.882812 L 174.371094 38.792969 L 172.671875 38.792969 L 172.671875 37.992188 C 172.085938 38.636719 171.339844 38.949219 170.460938 38.949219 C 169.46875 38.949219 168.644531 38.601562 168.003906 37.914062 C 167.359375 37.226562 167.046875 36.347656 167.046875 35.300781 C 167.046875 34.261719 167.371094 33.40625 168.027344 32.730469 C 168.679688 32.042969 169.492188 31.703125 170.472656 31.703125 C 171.328125 31.703125 172.0625 32.042969 172.671875 32.707031 Z M 183.480469 35.085938 L 182.386719 31.960938 L 181.273438 35.085938 Z M 186.683594 38.792969 L 184.710938 38.792969 L 184.011719 36.765625 L 180.742188 36.765625 L 180.019531 38.792969 L 178.058594 38.792969 L 181.632812 29.425781 L 183.164062 29.425781 Z M 192.882812 38.140625 C 192.320312 38.679688 191.542969 38.949219 190.5625 38.949219 C 189.570312 38.949219 188.800781 38.679688 188.238281 38.128906 C 187.675781 37.585938 187.394531 36.832031 187.394531 35.863281 L 187.394531 31.871094 L 189.1875 31.871094 L 189.1875 35.863281 C 189.1875 36.300781 189.308594 36.652344 189.558594 36.910156 C 189.804688 37.167969 190.144531 37.304688 190.570312 37.304688 C 191 37.304688 191.339844 37.167969 191.585938 36.910156 C 191.835938 36.652344 191.957031 36.300781 191.957031 35.863281 L 191.957031 31.871094 L 193.75 31.871094 L 193.75 35.863281 C 193.71875 36.84375 193.4375 37.597656 192.882812 38.140625 Z M 199.070312 35.320312 L 201.292969 38.792969 L 199.242188 38.792969 L 197.921875 36.527344 L 196.535156 38.792969 L 194.472656 38.792969 L 196.761719 35.265625 L 194.71875 31.882812 L 196.761719 31.882812 L 197.945312 34.003906 L 199.207031 31.882812 L 201.226562 31.882812 Z M 204.042969 31.882812 L 204.042969 38.792969 L 202.25 38.792969 L 202.25 31.882812 Z M 204.269531 30.011719 C 204.269531 30.328125 204.167969 30.585938 203.953125 30.800781 C 203.738281 31.015625 203.480469 31.117188 203.164062 31.117188 C 202.847656 31.117188 202.589844 31.015625 202.375 30.800781 C 202.160156 30.585938 202.058594 30.328125 202.058594 30.011719 C 202.058594 29.699219 202.160156 29.4375 202.375 29.234375 C 202.589844 29.019531 202.847656 28.917969 203.164062 28.917969 C 203.480469 28.917969 203.738281 29.019531 203.953125 29.234375 C 204.15625 29.4375 204.269531 29.699219 204.269531 30.011719 Z M 207.4375 29.15625 L 207.4375 38.78125 L 205.644531 38.78125 L 205.644531 29.15625 Z M 210.851562 31.882812 L 210.851562 38.792969 L 209.058594 38.792969 L 209.058594 31.882812 Z M 211.066406 30.011719 C 211.066406 30.328125 210.964844 30.585938 210.75 30.800781 C 210.535156 31.015625 210.277344 31.117188 209.960938 31.117188 C 209.644531 31.117188 209.386719 31.015625 209.171875 30.800781 C 208.957031 30.585938 208.855469 30.328125 208.855469 30.011719 C 208.855469 29.699219 208.957031 29.4375 209.171875 29.234375 C 209.386719 29.019531 209.644531 28.917969 209.960938 28.917969 C 210.277344 28.917969 210.535156 29.019531 210.75 29.234375 C 210.964844 29.4375 211.066406 29.699219 211.066406 30.011719 Z M 217.742188 35.332031 C 217.742188 34.792969 217.558594 34.316406 217.1875 33.925781 C 216.828125 33.539062 216.363281 33.335938 215.800781 33.335938 C 215.238281 33.335938 214.777344 33.53125 214.402344 33.925781 C 214.054688 34.308594 213.875 34.78125 213.875 35.332031 C 213.875 35.886719 214.054688 36.359375 214.414062 36.753906 C 214.777344 37.136719 215.238281 37.339844 215.800781 37.339844 C 216.355469 37.339844 216.816406 37.148438 217.1875 36.753906 C 217.550781 36.347656 217.742188 35.886719 217.742188 35.332031 Z M 217.707031 32.707031 L 217.707031 31.882812 L 219.410156 31.882812 L 219.410156 38.792969 L 217.707031 38.792969 L 217.707031 37.992188 C 217.121094 38.636719 216.375 38.949219 215.496094 38.949219 C 214.503906 38.949219 213.683594 38.601562 213.039062 37.914062 C 212.398438 37.226562 212.082031 36.347656 212.082031 35.300781 C 212.082031 34.261719 212.410156 33.40625 213.0625 32.730469 C 213.714844 32.042969 214.527344 31.703125 215.507812 31.703125 C 216.363281 31.703125 217.097656 32.042969 217.707031 32.707031 Z M 226.261719 35.332031 C 226.261719 34.78125 226.082031 34.308594 225.734375 33.925781 C 225.382812 33.539062 224.921875 33.335938 224.347656 33.335938 C 223.78125 33.335938 223.320312 33.53125 222.949219 33.925781 C 222.597656 34.308594 222.417969 34.769531 222.417969 35.332031 C 222.417969 35.894531 222.597656 36.378906 222.949219 36.765625 C 223.308594 37.148438 223.773438 37.339844 224.347656 37.339844 C 224.910156 37.339844 225.371094 37.148438 225.734375 36.765625 C 226.082031 36.371094 226.261719 35.894531 226.261719 35.332031 Z M 226.171875 32.683594 L 226.171875 29.15625 L 227.964844 29.15625 L 227.964844 38.78125 L 226.21875 38.78125 L 226.21875 37.9375 C 225.664062 38.613281 224.945312 38.949219 224.074219 38.949219 C 223.085938 38.949219 222.273438 38.613281 221.628906 37.925781 C 220.976562 37.226562 220.648438 36.359375 220.648438 35.332031 C 220.648438 34.308594 220.976562 33.449219 221.628906 32.75 C 222.285156 32.0625 223.105469 31.714844 224.074219 31.714844 C 224.898438 31.703125 225.597656 32.03125 226.171875 32.683594 Z M 231.550781 36.742188 C 231.910156 37.125 232.375 37.316406 232.914062 37.316406 C 233.445312 37.316406 233.894531 37.125 234.265625 36.742188 C 234.640625 36.347656 234.820312 35.875 234.820312 35.332031 C 234.820312 34.792969 234.628906 34.328125 234.265625 33.933594 C 233.894531 33.550781 233.445312 33.359375 232.914062 33.359375 C 232.363281 33.359375 231.910156 33.550781 231.550781 33.933594 C 231.1875 34.308594 231.007812 34.769531 231.007812 35.332031 C 231.007812 35.886719 231.1875 36.347656 231.550781 36.742188 Z M 229.214844 35.332031 C 229.214844 34.308594 229.566406 33.449219 230.253906 32.761719 C 230.953125 32.054688 231.84375 31.703125 232.914062 31.703125 C 233.984375 31.703125 234.875 32.054688 235.574219 32.761719 C 236.261719 33.449219 236.613281 34.316406 236.613281 35.332031 C 236.613281 36.359375 236.261719 37.226562 235.574219 37.914062 C 234.875 38.613281 233.984375 38.960938 232.914062 38.960938 C 231.84375 38.960938 230.953125 38.613281 230.253906 37.914062 C 229.566406 37.226562 229.214844 36.359375 229.214844 35.332031 Z M 239.65625 38.792969 L 237.863281 38.792969 L 237.863281 31.882812 L 239.578125 31.882812 L 239.578125 32.808594 C 239.992188 32.0625 240.625 31.691406 241.480469 31.691406 C 241.761719 31.691406 242.035156 31.738281 242.316406 31.839844 L 242.167969 33.550781 C 241.863281 33.460938 241.59375 33.417969 241.347656 33.417969 C 240.828125 33.417969 240.410156 33.597656 240.105469 33.945312 C 239.800781 34.296875 239.65625 34.8125 239.65625 35.511719 Z M 248.257812 35.332031 C 248.257812 34.792969 248.078125 34.316406 247.703125 33.925781 C 247.34375 33.539062 246.882812 33.335938 246.316406 33.335938 C 245.753906 33.335938 245.292969 33.53125 244.921875 33.925781 C 244.570312 34.308594 244.390625 34.78125 244.390625 35.332031 C 244.390625 35.886719 244.570312 36.359375 244.929688 36.753906 C 245.292969 37.136719 245.753906 37.339844 246.316406 37.339844 C 246.871094 37.339844 247.332031 37.148438 247.703125 36.753906 C 248.066406 36.347656 248.257812 35.886719 248.257812 35.332031 Z M 248.222656 32.707031 L 248.222656 31.882812 L 249.925781 31.882812 L 249.925781 38.792969 L 248.222656 38.792969 L 248.222656 37.992188 C 247.636719 38.636719 246.894531 38.949219 246.011719 38.949219 C 245.023438 38.949219 244.199219 38.601562 243.554688 37.914062 C 242.914062 37.226562 242.597656 36.347656 242.597656 35.300781 C 242.597656 34.261719 242.925781 33.40625 243.578125 32.730469 C 244.234375 32.042969 245.042969 31.703125 246.023438 31.703125 C 246.882812 31.703125 247.613281 32.042969 248.222656 32.707031 Z M 27.042969 35.558594 C 24.304688 37.902344 20.796875 39.074219 16.535156 39.074219 C 12.277344 39.074219 8.78125 37.902344 6.03125 35.558594 C 3.289062 33.214844 1.914062 30.058594 1.914062 26.078125 L 1.914062 2.703125 L 10.585938 2.703125 L 10.585938 25.324219 C 10.585938 28.863281 12.570312 30.632812 16.535156 30.632812 C 20.503906 30.632812 22.488281 28.863281 22.488281 25.324219 L 22.488281 2.703125 L 31.160156 2.703125 L 31.160156 26.078125 C 31.160156 30.058594 29.78125 33.214844 27.042969 35.558594 Z M 27.042969 35.558594 " fill-opacity="1" fill-rule="evenodd"/></g></svg>